<svg xmlns="http://www.w3.org/2000/svg" viewBox="0 0 100 100" width="100" height="100">
  <defs>
    <linearGradient id="cupGradient" x1="0%" y1="0%" x2="100%" y2="100%">
      <stop offset="0%" style="stop-color:#8D6E63;stop-opacity:1" />
      <stop offset="100%" style="stop-color:#5D4037;stop-opacity:1" />
    </linearGradient>
    <linearGradient id="steamGradient" x1="0%" y1="0%" x2="100%" y2="100%">
      <stop offset="0%" style="stop-color:#6D4C41;stop-opacity:0.8" />
      <stop offset="100%" style="stop-color:#5D4037;stop-opacity:0.6" />
    </linearGradient>
    <linearGradient id="saucerGradient" x1="0%" y1="0%" x2="100%" y2="100%">
      <stop offset="0%" style="stop-color:#A1887F;stop-opacity:1" />
      <stop offset="100%" style="stop-color:#8D6E63;stop-opacity:1" />
    </linearGradient>
  </defs>
  
  <!-- Saucer (Tabak) -->
  <ellipse cx="50" cy="75" rx="35" ry="8" fill="url(#saucerGradient)" opacity="0.9"/>
  <ellipse cx="50" cy="73" rx="32" ry="6" fill="url(#saucerGradient)" opacity="0.7"/>
  
  <!-- Cup Body (Fincan Gövdesi) -->
  <path d="M25 45 Q25 70 35 75 L65 75 Q75 70 75 45 L70 30 L30 30 Z" fill="url(#cupGradient)"/>
  
  <!-- Cup Rim (Fincan Ağzı) -->
  <ellipse cx="50" cy="30" rx="22" ry="4" fill="#A1887F"/>
  <ellipse cx="50" cy="28" rx="20" ry="3" fill="#BCAAA4"/>
  
  <!-- Coffee Surface (Kahve Yüzeyi) -->
  <ellipse cx="50" cy="30" rx="18" ry="2.5" fill="#3E2723"/>
  
  <!-- Cup Handle (Fincan Kulpu) -->
  <path d="M75 40 Q85 40 85 50 Q85 60 75 60" stroke="url(#cupGradient)" stroke-width="4" fill="none" stroke-linecap="round"/>
  <path d="M75 42 Q83 42 83 50 Q83 58 75 58" stroke="#A1887F" stroke-width="2" fill="none" stroke-linecap="round"/>
  
  <!-- Steam (Buhar) -->
  <path d="M42 25 Q40 20 42 15 Q44 10 42 5" stroke="url(#steamGradient)" stroke-width="2" fill="none" stroke-linecap="round" opacity="0.7">
    <animate attributeName="opacity" values="0.7;0.3;0.7" dur="2s" repeatCount="indefinite"/>
  </path>
  <path d="M50 25 Q48 20 50 15 Q52 10 50 5" stroke="url(#steamGradient)" stroke-width="2" fill="none" stroke-linecap="round" opacity="0.6">
    <animate attributeName="opacity" values="0.6;0.2;0.6" dur="2.5s" repeatCount="indefinite"/>
  </path>
  <path d="M58 25 Q56 20 58 15 Q60 10 58 5" stroke="url(#steamGradient)" stroke-width="2" fill="none" stroke-linecap="round" opacity="0.5">
    <animate attributeName="opacity" values="0.5;0.1;0.5" dur="3s" repeatCount="indefinite"/>
  </path>
  
  <!-- Highlight on Cup (Fincan Üzerinde Işık) -->
  <ellipse cx="45" cy="35" rx="3" ry="8" fill="#BCAAA4" opacity="0.6"/>
</svg>